<?xml version="1.0" standalone="no"?>
<!DOCTYPE svg PUBLIC "-//W3C//DTD SVG 20010904//EN"
 "http://www.w3.org/TR/2001/REC-SVG-20010904/DTD/svg10.dtd">
<svg version="1.0" xmlns="http://www.w3.org/2000/svg"
 width="626.000000pt" height="626.000000pt" viewBox="0 0 626.000000 626.000000"
 preserveAspectRatio="xMidYMid meet">
<metadata>
Created by potrace 1.11, written by Peter Selinger 2001-2013
</metadata>
<g transform="translate(0.000000,626.000000) scale(0.100000,-0.100000)"
fill="#000000" stroke="none">
<path d="M1305 5519 c-276 -26 -482 -93 -690 -226 -330 -212 -533 -537 -601
-963 -12 -77 -10 -310 3 -413 19 -151 74 -367 123 -482 4 -11 18 -44 30 -74
22 -54 103 -222 120 -251 6 -8 26 -44 46 -80 77 -134 254 -385 355 -502 13
-15 51 -58 84 -97 61 -71 348 -358 420 -421 202 -176 312 -265 505 -409 208
-156 675 -459 890 -579 25 -14 95 -53 155 -87 61 -34 172 -94 248 -134 129
-67 137 -70 138 -49 1 26 4 71 13 213 11 161 15 224 21 325 3 52 8 124 10 160
11 182 16 251 20 316 l5 71 -57 50 c-32 28 -77 68 -100 90 -23 22 -59 55 -81
74 -21 19 -79 70 -127 114 -48 44 -93 85 -99 90 -62 56 -234 213 -247 225 -8
8 -48 44 -89 80 -40 36 -87 79 -106 95 l-33 30 30 35 c17 19 54 62 82 94 47
54 207 235 376 426 65 73 99 112 157 179 16 18 40 46 54 61 14 15 38 43 54 61
35 41 154 175 179 203 10 12 15 28 11 40 -9 32 -153 484 -174 546 -24 72 -158
491 -177 555 -17 55 -44 84 -163 175 -256 195 -617 371 -855 416 -11 2 -42 8
-70 14 -82 17 -88 18 -166 25 -102 10 -211 11 -294 4z"/>
<path d="M4777 5524 c-1 -1 -43 -4 -94 -8 -80 -6 -119 -11 -223 -31 -125 -24
-353 -106 -501 -181 -74 -37 -241 -133 -249 -144 -3 -3 -22 -16 -43 -29 -21
-13 -43 -28 -50 -34 -6 -7 -39 -32 -72 -57 -33 -24 -74 -57 -92 -73 l-31 -28
35 -62 c20 -34 47 -82 61 -107 14 -25 144 -253 289 -507 144 -254 263 -467
263 -472 0 -6 -10 -16 -22 -22 -24 -12 -159 -92 -728 -431 -616 -368 -620
-370 -611 -382 14 -18 500 -663 533 -708 9 -13 71 -95 138 -183 66 -87 120
-165 120 -172 0 -8 -24 -89 -54 -181 -30 -92 -98 -302 -151 -467 -53 -165
-111 -344 -128 -397 -31 -97 -31 -122 1 -101 9 7 62 35 117 64 664 346 1252
739 1740 1163 113 98 414 402 514 520 289 339 508 709 618 1045 28 87 69 255
78 321 3 25 9 59 12 75 9 50 10 291 1 363 -59 501 -341 891 -793 1097 -85 39
-213 81 -275 90 -25 4 -47 8 -50 10 -21 13 -340 40 -353 29z"/>
</g>
</svg>
